<svg xmlns="http://www.w3.org/2000/svg" xmlns:xlink="http://www.w3.org/1999/xlink" xmlns:a="http://ns.adobe.com/AdobeSVGViewerExtensions/3.0/" version="1.1" x="0px" y="0px" width="424px" height="204px" viewBox="186 91 424 204" overflow="visible" enable-background="new 186 91 424 204" xml:space="preserve">
<defs>
</defs>
<rect display="none" opacity="0.1" fill="#C22E00" width="800" height="600"/>
<path fill="#C22E00" d="M396.308 185.329c1.669-2.522 3.677-3.784 6.022-3.784c3.623 0 6.3 1.5 8.1 4.6 c0.391-0.533 0.861-1.093 1.412-1.679c0.551-0.587 1.43-1.226 2.639-1.919c1.207-0.692 2.451-1.039 3.73-1.039 c2.842 0 5.2 1.1 7.1 3.277c1.918 2.2 2.9 5.8 2.9 10.845v9.326c0 0.817-0.025 1.431-0.08 1.8 c-0.053 0.408-0.221 0.879-0.506 1.412c-0.461 0.959-1.83 1.438-4.104 1.438c-2.238 0-3.605-0.497-4.104-1.492 c-0.248-0.533-0.398-1.003-0.453-1.412c-0.053-0.408-0.08-1.021-0.08-1.839v-9.325c0-3.091-1.102-4.637-3.303-4.637 c-1.244 0-2.088 0.409-2.531 1.226c-0.445 0.817-0.666 1.972-0.666 3.464v9.326c0 0.853-0.027 1.475-0.08 1.9 c-0.055 0.392-0.223 0.853-0.506 1.386c-0.498 0.959-1.885 1.438-4.158 1.438c-2.238 0-3.605-0.497-4.104-1.492 c-0.248-0.533-0.398-1.003-0.453-1.412c-0.053-0.408-0.078-1.021-0.078-1.839v-9.325c0-3.091-1.102-4.637-3.305-4.637 c-2.132 0-3.197 1.546-3.197 4.637v9.432c0 0.818-0.026 1.431-0.08 1.839c-0.053 0.409-0.222 0.879-0.506 1.4 c-0.533 0.925-1.919 1.386-4.157 1.386s-3.605-0.479-4.104-1.438c-0.248-0.533-0.399-0.994-0.452-1.386 c-0.054-0.391-0.08-1.013-0.08-1.865v-18.759c0-0.816 0.026-1.43 0.08-1.838c0.053-0.408 0.221-0.861 0.506-1.359 c0.533-0.959 1.794-1.438 3.784-1.438c1.989 0 3.3 0.3 3.9 0.959C396.005 183.2 396.3 184.1 396.3 185.329z"/>
<path fill="#C22E00" d="M453.703 181.917c0.674 0.2 1.2 0.6 1.7 1.093c0.443 0.5 0.7 1.3 0.7 2.5 c0 1.138-0.338 2.381-1.012 3.73c-0.676 1.351-1.652 2.025-2.932 2.025c-0.639 0-1.252-0.142-1.838-0.427 c-0.586-0.283-1.359-0.426-2.318-0.426s-1.857 0.338-2.691 1.013c-0.836 0.675-1.252 1.492-1.252 2.451v11.19 c0 0.818-0.027 1.431-0.08 1.839c-0.053 0.409-0.223 0.879-0.506 1.412c-0.533 0.925-1.92 1.386-4.158 1.4 c-1.705 0-2.93-0.302-3.676-0.906c-0.568-0.497-0.889-1.261-0.959-2.291c0-0.354 0-0.87 0-1.546v-18.705 c0-0.816 0.025-1.43 0.08-1.838c0.053-0.408 0.203-0.861 0.451-1.359c0.498-0.959 1.883-1.438 4.158-1.438 c2.131 0 3.5 0.4 4 1.226c0.391 0.6 0.6 1.2 0.6 1.759c0.178-0.248 0.436-0.551 0.773-0.906 c0.338-0.354 1.057-0.834 2.158-1.438c1.1-0.604 2.068-0.906 2.904-0.906c0.834 0 1.5 0 2.1 0.1 C452.404 181.6 453 181.7 453.7 181.917z"/>
<path fill="#C22E00" d="M472.514 209.576c-3.59 0-6.564-1.359-8.926-4.077c-2.363-2.718-3.545-6.03-3.545-9.938v-9.326 c0-0.853 0.027-1.474 0.08-1.865c0.053-0.391 0.205-0.853 0.453-1.385c0.498-0.96 1.883-1.439 4.156-1.439 c2.486 0 3.9 0.7 4.4 2.025c0.213 0.6 0.3 1.5 0.3 2.718v9.326c0 1.5 0.4 2.6 1.3 3.4 c0.836 0.8 2 1.2 3.4 1.226c1.404 0 2.541-0.426 3.412-1.279c0.869-0.853 1.305-1.972 1.305-3.356v-9.433 c0-0.817 0.027-1.43 0.08-1.839c0.053-0.408 0.221-0.879 0.506-1.412c0.461-0.924 1.83-1.386 4.104-1.386 c2.238 0 3.6 0.5 4.1 1.439c0.248 0.5 0.4 1 0.5 1.412s0.08 1 0.1 1.838v18.865c0 0.782-0.027 1.377-0.08 1.8 c-0.053 0.409-0.223 0.862-0.506 1.359c-0.533 0.924-1.9 1.385-4.104 1.385c-2.168 0-3.5-0.426-3.996-1.278 c-0.355-0.604-0.533-1.332-0.533-2.186c-0.143 0.249-0.463 0.604-0.959 1.066c-0.498 0.462-0.979 0.853-1.439 1.2 C475.248 209.2 473.9 209.6 472.5 209.576z"/>
<path fill="#C22E00" d="M510.936 181.651c3.162 0 6.1 1.4 8.7 4.21c2.646 2.8 4 6.1 4 9.8 c0 3.713-1.314 6.964-3.943 9.752c-2.631 2.79-5.455 4.184-8.475 4.184s-5.168-0.853-6.447-2.558c-0.285 1.74-1.812 2.61-4.584 2.6 c-2.238 0-3.605-0.479-4.104-1.438c-0.248-0.533-0.398-1.003-0.451-1.412c-0.055-0.408-0.08-1.021-0.08-1.839v-31.814 c0-0.816 0.025-1.43 0.08-1.838c0.053-0.408 0.203-0.861 0.451-1.359c0.498-0.959 1.883-1.439 4.158-1.439 c2.238 0 3.6 0.5 4 1.439c0.285 0.5 0.5 1 0.5 1.412c0.053 0.4 0.1 1 0.1 1.839v11.084 C506.281 182.5 508.3 181.7 510.9 181.651z M506.273 198.864c0.869 1 2 1.4 3.3 1.4 c1.312 0 2.432-0.479 3.357-1.439c0.922-0.959 1.385-2.024 1.385-3.197c0-1.172-0.426-2.246-1.279-3.224 c-0.852-0.977-1.99-1.466-3.41-1.466c-1.422 0-2.551 0.498-3.385 1.492c-0.834 0.995-1.252 2.07-1.252 3.2 C504.967 196.8 505.4 197.9 506.3 198.864z"/>
<path fill="#C22E00" d="M553.195 181.917c2.096 0.9 3.1 2 3.1 3.357c0 0.64-0.143 1.244-0.428 1.8 c-0.285 0.569-0.426 0.871-0.426 0.906l-13.963 31.229c-0.283 0.675-0.523 1.189-0.719 1.546c-0.195 0.354-0.506 0.692-0.932 1 c-0.428 0.32-0.961 0.479-1.6 0.479s-1.582-0.266-2.824-0.799c-2.098-0.925-3.145-2.025-3.145-3.304 c0-0.854 1.705-4.922 5.115-12.204l-10.604-17.853c-0.711-1.172-1.066-2.042-1.066-2.611c0-1.137 0.959-2.272 2.877-3.41 c1.209-0.71 2.15-1.066 2.826-1.066c0.674 0 1.2 0.1 1.6 0.427c0.428 0.3 0.7 0.6 0.9 0.9 c0.195 0.3 1.2 2 2.9 4.956c1.76 3 3.4 5.8 5 8.394c0.178-0.567 1.137-2.762 2.877-6.581 s2.674-5.854 2.799-6.102c0.123-0.249 0.328-0.551 0.613-0.906c0.461-0.604 1.109-0.906 1.943-0.906 C551.072 181.2 552.1 181.4 553.2 181.917z"/>
<path fill="#C22E00" d="M274.184 263.917c-4.071 0-7.587-1.658-9.176-4.327l-0.088-0.155l-21.984-40.986 c-0.496-0.863-0.706-1.791-0.761-2.759L239 154.139v-0.105c0-3.508 2.912-6.455 7.349-7.333l70.573-13.361 c0.851-0.169 1.75-0.258 2.673-0.258c4.038 0 7.5 1.6 9.1 4.228l27.038 41.06l0.042 0.1 c0.541 0.9 0.8 1.9 0.9 2.889l0.012 0.238l-3.989 58.485c0.014 3.458-2.84 6.332-7.209 7.224l-68.597 16.4 C276.025 263.8 275.1 263.9 274.2 263.917z"/>
<path fill="#FFFFFF" d="M348.715 239.964c0.076 1.493-1.51 2.904-4.065 3.409l-68.514 16.355c-3.158 0.625-6.602-0.354-7.691-2.185 l-22.018-41.048c-0.203-0.341-0.309-0.691-0.328-1.034l-3.237-61.429c0-1.491 1.628-2.901 4.194-3.409l70.574-13.354 c3.146-0.623 6.6 0.4 7.7 2.181l27.033 41.047c0.206 0.3 0.3 0.7 0.3 1.04L348.715 239.964z"/>
<path fill="#FFFFFF" d="M274.184 201.488c-3.319 0-6.246-1.315-7.458-3.35l-25.018-42.049c-0.723-1.216-0.811-2.582-0.247-3.847 c0.786-1.761 2.728-3.065 5.327-3.579l70.529-13.357c0.74-0.147 1.525-0.223 2.316-0.223c3.317 0 6.2 1.3 7.5 3.3 l26.97 40.97c0.773 1.3 0.9 2.7 0.3 3.931c-0.785 1.76-2.722 3.063-5.313 3.577l-72.514 14.4 C275.764 201.4 275 201.5 274.2 201.488z"/>
<path fill="#C22E00" d="M319.634 137.082c2.512 0 4.9 0.9 5.7 2.369l27.019 41.047c1.089 1.832-0.589 3.823-3.735 4.4 l-72.514 14.355c-0.646 0.128-1.305 0.188-1.953 0.188c-2.517 0-4.872-0.917-5.739-2.373l-25.018-42.049 c-1.086-1.826 0.591-3.817 3.749-4.441l70.514-13.354C318.333 137.1 319 137.1 319.6 137.1 M319.634 133.1 c-0.921 0-1.836 0.089-2.721 0.264l-70.481 13.348c-3.277 0.647-5.743 2.37-6.797 4.732c-0.824 1.848-0.695 3.9 0.4 5.7 l25.018 42.05c1.589 2.7 5.1 4.3 9.2 4.328c0.923 0 1.841-0.089 2.729-0.265l72.514-14.355 c3.238-0.641 5.699-2.363 6.752-4.724c0.825-1.849 0.695-3.923-0.355-5.69l-0.047-0.079l-0.05-0.077l-26.98-40.988 C327.134 134.7 323.7 133.1 319.6 133.082L319.634 133.082z"/>
<path fill="#C22E00" d="M309.346 160.774c-3.675 0-7.194-0.863-9.91-2.432c-3.347-1.932-5.278-4.854-5.296-8.017l0.002-6.919 c-0.07-3.226 1.835-6.204 5.236-8.181c2.705-1.571 6.22-2.437 9.899-2.437c3.675 0 7 0.9 9.7 2.4 c3.347 1.9 5.1 4.9 5.1 8.017v6.97c0 3.182-1.714 6.223-4.996 8.13C316.299 159.9 313 160.8 309.3 160.774z"/>
<path fill="#FFFFFF" d="M317.187 138.685c4.375 2.5 4.4 6.6 0.1 9.152s-11.425 2.526-15.8 0 c-4.381-2.529-4.398-6.625-0.051-9.152C305.733 136.2 312.8 136.2 317.2 138.685z"/>
<path fill="#C22E00" d="M269.615 168.726c-3.675 0-7.194-0.863-9.91-2.432c-3.347-1.933-5.278-4.854-5.296-8.016l0.002-6.919 c-0.07-3.225 1.834-6.203 5.236-8.18c2.705-1.572 6.221-2.438 9.9-2.438c3.675 0 7.3 0.9 10 2.4 c3.347 1.9 5.4 4.9 5.4 8.016v6.92c0 3.226-1.96 6.204-5.362 8.18C276.935 167.9 273.3 168.7 269.6 168.726z"/>
<path fill="#FFFFFF" d="M277.457 146.636c4.375 2.5 4.4 6.6 0.1 9.152s-11.425 2.526-15.8 0 c-4.381-2.529-4.398-6.625-0.051-9.152C266.003 144.1 273.1 144.1 277.5 146.636z"/>
<path fill="#C22E00" d="M323.576 184.521c-3.864 0-7.562-0.906-10.411-2.552c-3.479-2.008-5.486-5.036-5.506-8.305l0.002-7.361 c-0.073-3.335 1.906-6.422 5.441-8.477c2.838-1.649 6.532-2.557 10.4-2.557c3.864 0 7.4 0.9 10.2 2.6 c3.479 2 5.3 5 5.3 8.306v7.36c0 3.337-1.698 6.423-5.234 8.477C330.929 183.6 327.4 184.5 323.6 184.521z"/>
<path fill="#FFFFFF" d="M331.915 161.284c4.653 2.7 4.7 7 0.1 9.733c-4.622 2.687-12.15 2.687-16.802 0 c-4.66-2.69-4.677-7.046-0.055-9.733C319.735 158.6 327.3 158.6 331.9 161.284z"/>
<path fill="#C22E00" d="M283.389 191.913c-3.864 0-7.562-0.906-10.411-2.552c-3.479-2.009-5.486-5.037-5.505-8.306l0.002-7.36 c-0.074-3.336 1.906-6.422 5.441-8.478c2.838-1.649 6.532-2.557 10.4-2.557c3.864 0 7.4 0.9 10.3 2.6 c3.479 2 5.4 5 5.4 8.306v7.36c0 3.336-1.792 6.423-5.327 8.477C290.835 191 287.3 191.9 283.4 191.913z"/>
<path fill="#FFFFFF" d="M291.728 168.676c4.653 2.7 4.7 7 0.1 9.732c-4.622 2.687-12.15 2.687-16.802 0 c-4.66-2.689-4.677-7.046-0.055-9.732C279.548 166 287.1 166 291.7 168.676z"/>
<path fill="#C22E00" d="M327.021 206.292c-1.402-1.402-3.186-1.604-5.979-1.689l-8.218 0.1c-2.804 0.085-7.965 2.652-12.171 6.9 c-4.144 4.143-7.285 8.415-7.313 11.588l-0.484 10.397c0 2.3 0.2 3.8 1.5 5.166c1.313 1.3 3.6 2.2 5.9 2 l0.022-0.002l-5.053-11.83l9.258-2.086l10.269-9.819l2.92-9.273l10.429 8.552l-13.349 0.722l3.657 14.312l-13.926-4.492 l-4.203 13.916l26.714-1.851l1.94-27.309l0 0C329.105 209.2 328.4 207.6 327 206.292z"/>
</svg>
