<!DOCTYPE svg PUBLIC "-//W3C//DTD SVG 1.1//EN" "http://www.w3.org/Graphics/SVG/1.1/DTD/svg11.dtd" [
	<!ENTITY ns_flows "http://ns.adobe.com/Flows/1.0/">
]><svg xmlns="http://www.w3.org/2000/svg" width="36" height="29" viewBox="-0.4048 -0.3877 36 29" overflow="visible" enable-background="new -0.4048 -0.3877 36 29"><path fill="#C7341D" d="M18.91 28.221c-.146.159-.394.166-.55.019l-18.23-17.226c-.155-.148-.174-.405-.037-.572l8.165-10.138c.134-.166.419-.304.635-.304h17.409c.213 0 .5.137.637.302l8.156 9.935c.137.165.129.43-.018.585l-8.404 9.046c-.146.157-.395.166-.553.021l-1.713-1.593c-.158-.145-.166-.394-.021-.552l6.551-7.05c.146-.154.154-.419.018-.585l-5.49-6.688c-.137-.166-.424-.302-.639-.302h-14.44c-.214 0-.499.137-.634.305l-5.422 6.731c-.135.166-.116.423.039.571l13.852 13.089c.155.145.404.138.55-.018l1.227-1.315c.146-.156.139-.406-.018-.554l-11.904-11.257c-.155-.147-.17-.4-.031-.564l3.671-4.316c.139-.164.428-.297.643-.297h10.69c.213 0 .502.137.637.302l3.674 4.451c.137.165.131.43-.016.587l-4.695 5.122c-.144.158-.393.17-.551.024l-1.725-1.582c-.158-.144-.168-.394-.023-.551l2.861-3.12c.144-.159.15-.423.016-.589l-1.01-1.225c-.137-.165-.424-.301-.639-.301h-7.778c-.214 0-.503.135-.642.297l-.819.963c-.138.163-.125.418.031.565l12.004 11.352c.154.146.162.397.018.554l-5.48 5.878z"/></svg>