<!DOCTYPE svg PUBLIC "-//W3C//DTD SVG 1.1//EN" "http://www.w3.org/Graphics/SVG/1.1/DTD/svg11.dtd" [
	<!ENTITY ns_flows "http://ns.adobe.com/Flows/1.0/">
]><svg xmlns="http://www.w3.org/2000/svg" width="408" height="111" viewBox="-0.9888 -0.2666 408 111" overflow="visible" enable-background="new -0.9888 -0.2666 408 111"><path fill="#C7341D" d="M174.848 41.348c2.42-3.657 5.331-5.485 8.73-5.485 5.254 0 9.168 2.24 11.744 6.722.565-.772 1.248-1.584 2.047-2.434.798-.85 2.073-1.777 3.825-2.782 1.75-1.004 3.554-1.506 5.408-1.506 4.12 0 7.571 1.583 10.352 4.752 2.782 3.168 4.173 8.41 4.173 15.723v13.521c0 1.185-.039 2.074-.116 2.666s-.322 1.273-.734 2.047c-.67 1.391-2.653 2.086-5.949 2.086-3.244 0-5.229-.721-5.949-2.164-.36-.771-.579-1.454-.656-2.047-.077-.592-.116-1.48-.116-2.666v-13.52c0-4.481-1.597-6.722-4.79-6.722-1.804 0-3.026.593-3.67 1.777-.644 1.185-.966 2.859-.966 5.022v13.521c0 1.236-.039 2.138-.116 2.704-.077.567-.322 1.235-.733 2.009-.723 1.391-2.731 2.086-6.027 2.086-3.245 0-5.229-.721-5.949-2.164-.361-.771-.579-1.454-.657-2.047-.077-.592-.116-1.48-.116-2.666v-13.52c0-4.481-1.597-6.722-4.79-6.722-3.09 0-4.636 2.241-4.636 6.722v13.676c0 1.185-.039 2.073-.116 2.665-.077.594-.322 1.275-.734 2.048-.772 1.34-2.782 2.009-6.026 2.009-3.245 0-5.229-.695-5.949-2.086-.361-.773-.58-1.441-.657-2.009-.078-.566-.116-1.468-.116-2.704v-27.197c0-1.184.039-2.073.116-2.666.077-.591.321-1.248.734-1.97.772-1.391 2.6-2.086 5.485-2.086 2.884 0 4.764.463 5.641 1.391.875.927 1.313 2.267 1.313 4.018z"/><path fill="#C7341D" d="M258.059 36.403c.979.309 1.79.838 2.435 1.584.644.748.966 1.945.966 3.593 0 1.649-.49 3.452-1.469 5.408-.979 1.958-2.394 2.936-4.249 2.936-.927 0-1.815-.205-2.666-.618-.85-.412-1.97-.618-3.36-.618s-2.692.49-3.902 1.468c-1.21.979-1.815 2.163-1.815 3.554v16.225c0 1.185-.038 2.073-.115 2.665-.078.594-.323 1.275-.734 2.048-.772 1.34-2.781 2.009-6.026 2.009-2.473 0-4.25-.438-5.331-1.313-.825-.721-1.288-1.827-1.391-3.322v-29.36c0-1.184.038-2.073.115-2.666.077-.591.296-1.248.657-1.97.721-1.391 2.729-2.086 6.026-2.086 3.091 0 5.022.593 5.795 1.777.565.825.85 1.675.85 2.55.257-.36.63-.798 1.12-1.313.489-.514 1.532-1.21 3.129-2.086 1.597-.875 3-1.313 4.211-1.313 1.21 0 2.228.065 3.052.193.823.129 1.726.348 2.704.657z"/><path fill="#C7341D" d="M285.332 76.503c-5.203 0-9.517-1.971-12.941-5.91-3.426-3.941-5.138-8.743-5.138-14.41v-13.521c0-1.236.038-2.137.115-2.704.077-.566.296-1.236.657-2.009.721-1.391 2.729-2.086 6.026-2.086 3.604 0 5.718.979 6.336 2.936.309.824.463 2.138.463 3.94v13.521c0 2.112.606 3.761 1.815 4.944 1.21 1.185 2.833 1.777 4.868 1.777 2.034 0 3.682-.617 4.944-1.853s1.894-2.859 1.894-4.868v-13.675c0-1.184.038-2.073.115-2.666.077-.592.321-1.275.734-2.047.669-1.339 2.652-2.009 5.949-2.009 3.245 0 5.228.695 5.949 2.086.359.772.579 1.456.656 2.047.078.593.116 1.481.116 2.666v27.351c0 1.134-.038 1.996-.116 2.588-.077.594-.322 1.25-.733 1.971-.772 1.34-2.756 2.009-5.949 2.009-3.143 0-5.074-.618-5.795-1.855-.516-.875-.772-1.932-.772-3.168-.207.361-.67.877-1.391 1.545-.722.67-1.418 1.236-2.086 1.7-1.752 1.134-3.658 1.7-5.718 1.7z"/><path fill="#C7341D" d="M341.037 36.017c4.584 0 8.795 2.036 12.633 6.104 3.837 4.069 5.756 8.796 5.756 14.177 0 5.384-1.906 10.097-5.717 14.14-3.813 4.044-7.908 6.065-12.285 6.065-4.379 0-7.494-1.236-9.349-3.709-.413 2.524-2.627 3.786-6.644 3.786-3.245 0-5.229-.695-5.949-2.087-.361-.771-.58-1.454-.657-2.047-.077-.592-.115-1.48-.115-2.666v-46.125c0-1.185.038-2.073.115-2.666.077-.592.296-1.248.657-1.97.721-1.391 2.729-2.086 6.026-2.086 3.245 0 5.202.695 5.872 2.086.411.772.656 1.456.733 2.047.078.593.116 1.481.116 2.666v16.071c2.059-2.523 4.995-3.786 8.807-3.786zm-6.76 24.956c1.262 1.391 2.845 2.086 4.751 2.086 1.905 0 3.528-.695 4.868-2.086 1.339-1.392 2.009-2.937 2.009-4.637 0-1.7-.618-3.257-1.855-4.674-1.236-1.416-2.886-2.124-4.945-2.124-2.061 0-3.696.722-4.905 2.164-1.211 1.442-1.816 3.001-1.816 4.674 0 1.674.631 3.206 1.893 4.598z"/><path fill="#C7341D" d="M402.306 36.403c3.038 1.34 4.559 2.963 4.559 4.868 0 .927-.207 1.804-.618 2.627-.413.825-.618 1.263-.618 1.313l-20.243 45.276c-.412.978-.76 1.725-1.043 2.24-.283.515-.733 1.005-1.352 1.469-.618.463-1.391.695-2.318.695s-2.292-.387-4.095-1.159c-3.04-1.341-4.559-2.937-4.559-4.79 0-1.236 2.473-7.135 7.417-17.693l-15.375-25.883c-1.031-1.7-1.545-2.961-1.545-3.786 0-1.648 1.391-3.296 4.172-4.945 1.751-1.03 3.116-1.545 4.095-1.545s1.777.206 2.396.618c.618.413 1.068.838 1.352 1.275.283.439 1.7 2.833 4.25 7.186s4.983 8.41 7.301 12.168c.258-.823 1.648-4.004 4.173-9.541 2.522-5.537 3.875-8.486 4.056-8.847.18-.36.476-.798.889-1.313.669-.875 1.609-1.313 2.82-1.313 1.21 0 2.639.361 4.288 1.081z"/><path fill="#C7341D" d="M140.534 37.414c.617-.656.647-1.76.071-2.451l-28.185-33.707c-.577-.691-1.787-1.256-2.688-1.256h-78.542c-.9 0-2.111.565-2.686 1.259l-28.096 33.742c-.577.693-.535 1.788.092 2.435l69.733 71.893c.626.644 1.647.64 2.265-.016l11.449-12.102c.62-.654.614-1.719-.013-2.365l-55.824-57.703c-.625-.647-.667-1.746-.09-2.438l11.571-13.957c.575-.693 1.783-1.261 2.685-1.261h56.552c.903 0 2.112.567 2.69 1.257l11.696 13.987c.578.691.55 1.796-.06 2.461l-3.087 3.348c-.611.664-1.583.638-2.16-.052l-10.898-13.026c-.58-.69-1.788-1.254-2.691-1.254h-46.725c-.901 0-2.116.56-2.7 1.246l-6.381 7.486c-.585.686-.55 1.779.075 2.427l35.485 36.713c.626.648 1.116 1.33 1.087 1.514v.173c0 3.294 2.677 5.972 5.968 5.972 3.293 0 5.972-2.678 5.972-5.972v-.248c-.042-.263-.055-.463-.034-.442.022.019.541-.504 1.152-1.167l33.656-36.507c.611-.664.639-1.769.061-2.459l-17.354-20.752c-.577-.69-1.787-1.257-2.688-1.257h-62.693c-.901 0-2.108.568-2.684 1.262l-17.284 20.845c-.576.693-.533 1.79.092 2.438l55.545 57.416c.627.648.633 1.711.013 2.367l-2.439 2.58c-.619.652-1.639.658-2.267.013l-60.869-62.753c-.628-.647-.67-1.743-.094-2.435l22.362-26.855c.576-.693 1.786-1.26 2.686-1.26h72.411c.9 0 2.111.567 2.688 1.257l22.496 26.901c.58.69.545 1.794-.071 2.451l-38.99 41.52c-.617.656-1.466 1.139-1.886 1.077h-.399c-3.292 0-5.968 2.677-5.968 5.971s2.677 5.97 5.968 5.97c3.293 0 5.973-2.676 5.973-5.97v-.433c-.077-.453.365-1.361.982-2.018l43.072-45.864zm-59.408 41.05c-1.484 0-2.691-1.209-2.691-2.696 0-1.485 1.208-2.692 2.691-2.692 1.486 0 2.697 1.207 2.697 2.692 0 1.487-1.21 2.696-2.697 2.696zm9.381 9.959c-1.486 0-2.694-1.209-2.694-2.694 0-1.487 1.208-2.696 2.694-2.696 1.487 0 2.697 1.209 2.697 2.696 0 1.485-1.209 2.694-2.697 2.694z"/></svg>